<svg width="257" height="76" viewBox="0 0 257 76" fill="none" xmlns="http://www.w3.org/2000/svg">
<g filter="url(#filter0_d_1_45)">
<rect width="249" height="68" transform="translate(4)" fill="#E7E7E7"/>
<path d="M55 27C55 21.127 49.459 19.319 42 18V16C42 15.4696 41.7893 14.9609 41.4142 14.5858C41.0391 14.2107 40.5304 14 40 14H36C35.4696 14 34.9609 14.2107 34.5858 14.5858C34.2107 14.9609 34 15.4696 34 16V18C26.541 19.319 21 21.127 21 27M24 27H52C54 27 58 27 58 30C58 33 54 33 52 33V51C52 51.5304 51.7893 52.0391 51.4142 52.4142C51.0391 52.7893 50.5304 53 50 53H26C25.4696 53 24.9609 52.7893 24.5858 52.4142C24.2107 52.0391 24 51.5304 24 51V33C22 33 18 33 18 30C18 27 22 27 24 27Z" stroke="#46914E" stroke-width="4" stroke-linecap="round" stroke-linejoin="round"/>
<path d="M89.2585 19.9091V49H83.179V24.9091H71.4176V49H65.3381V19.9091H89.2585ZM121.847 34.4545C121.847 37.6269 121.246 40.3258 120.043 42.5511C118.85 44.7765 117.221 46.4763 115.157 47.6506C113.102 48.8153 110.791 49.3977 108.225 49.3977C105.64 49.3977 103.32 48.8106 101.265 47.6364C99.21 46.4621 97.5859 44.7623 96.3928 42.5369C95.1996 40.3116 94.603 37.6174 94.603 34.4545C94.603 31.2822 95.1996 28.5833 96.3928 26.358C97.5859 24.1326 99.21 22.4375 101.265 21.2727C103.32 20.0985 105.64 19.5114 108.225 19.5114C110.791 19.5114 113.102 20.0985 115.157 21.2727C117.221 22.4375 118.85 24.1326 120.043 26.358C121.246 28.5833 121.847 31.2822 121.847 34.4545ZM115.612 34.4545C115.612 32.3996 115.304 30.6667 114.688 29.2557C114.082 27.8447 113.225 26.7746 112.117 26.0455C111.009 25.3163 109.712 24.9517 108.225 24.9517C106.738 24.9517 105.441 25.3163 104.333 26.0455C103.225 26.7746 102.363 27.8447 101.748 29.2557C101.142 30.6667 100.839 32.3996 100.839 34.4545C100.839 36.5095 101.142 38.2424 101.748 39.6534C102.363 41.0644 103.225 42.1345 104.333 42.8636C105.441 43.5928 106.738 43.9574 108.225 43.9574C109.712 43.9574 111.009 43.5928 112.117 42.8636C113.225 42.1345 114.082 41.0644 114.688 39.6534C115.304 38.2424 115.612 36.5095 115.612 34.4545ZM152.071 30.0938H145.849C145.736 29.2888 145.504 28.5739 145.153 27.9489C144.803 27.3144 144.353 26.7746 143.804 26.3295C143.255 25.8845 142.62 25.5436 141.901 25.3068C141.19 25.0701 140.419 24.9517 139.585 24.9517C138.08 24.9517 136.768 25.3258 135.651 26.0739C134.533 26.8125 133.667 27.892 133.051 29.3125C132.436 30.7235 132.128 32.4375 132.128 34.4545C132.128 36.5284 132.436 38.2708 133.051 39.6818C133.676 41.0928 134.547 42.1581 135.665 42.8778C136.782 43.5975 138.075 43.9574 139.543 43.9574C140.366 43.9574 141.129 43.8485 141.83 43.6307C142.54 43.4129 143.17 43.0956 143.719 42.679C144.268 42.2528 144.723 41.7367 145.082 41.1307C145.452 40.5246 145.707 39.8333 145.849 39.0568L152.071 39.0852C151.91 40.4205 151.508 41.7083 150.864 42.9489C150.229 44.1799 149.372 45.2831 148.293 46.2585C147.223 47.2244 145.944 47.9915 144.457 48.5597C142.98 49.1184 141.309 49.3977 139.443 49.3977C136.848 49.3977 134.528 48.8106 132.483 47.6364C130.447 46.4621 128.837 44.7623 127.653 42.5369C126.479 40.3116 125.892 37.6174 125.892 34.4545C125.892 31.2822 126.489 28.5833 127.682 26.358C128.875 24.1326 130.494 22.4375 132.54 21.2727C134.585 20.0985 136.886 19.5114 139.443 19.5114C141.129 19.5114 142.691 19.7481 144.131 20.2216C145.58 20.6951 146.863 21.3864 147.98 22.2955C149.098 23.1951 150.007 24.2983 150.707 25.6051C151.418 26.9119 151.872 28.4081 152.071 30.0938ZM159.621 49.3977V44.3977H161.197C161.983 44.3977 162.618 44.303 163.101 44.1136C163.584 43.9148 163.967 43.6259 164.251 43.2472C164.545 42.8589 164.791 42.3759 164.99 41.7983L165.345 40.8466L154.777 19.9091H161.141L167.987 34.2273L173.712 19.9091H179.99L169.962 43.2898C169.479 44.3693 168.906 45.3731 168.243 46.3011C167.589 47.2292 166.751 47.9773 165.729 48.5455C164.706 49.1136 163.399 49.3977 161.808 49.3977H159.621ZM181.741 56.017V44.0994H183.715C184.388 43.6165 185.003 42.9347 185.562 42.054C186.121 41.1638 186.599 39.9375 186.996 38.375C187.394 36.803 187.678 34.7481 187.849 32.2102L188.673 19.9091H207.92V44.0994H211.102V55.9886H205.192V49H187.65V56.017H181.741ZM190.817 44.0994H202.011V24.9801H194.212L193.758 32.2102C193.635 34.1326 193.431 35.8371 193.147 37.3239C192.872 38.8106 192.536 40.1127 192.138 41.2301C191.75 42.3381 191.31 43.2945 190.817 44.0994ZM219.855 49H213.264L223.307 19.9091H231.233L241.261 49H234.67L227.384 26.5568H227.156L219.855 49ZM219.443 37.5653H235.011V42.3665H219.443V37.5653Z" fill="#46914E"/>
</g>
<defs>
<filter id="filter0_d_1_45" x="0" y="0" width="257" height="76" filterUnits="userSpaceOnUse" color-interpolation-filters="sRGB">
<feFlood flood-opacity="0" result="BackgroundImageFix"/>
<feColorMatrix in="SourceAlpha" type="matrix" values="0 0 0 0 0 0 0 0 0 0 0 0 0 0 0 0 0 0 127 0" result="hardAlpha"/>
<feOffset dy="4"/>
<feGaussianBlur stdDeviation="2"/>
<feComposite in2="hardAlpha" operator="out"/>
<feColorMatrix type="matrix" values="0 0 0 0 0 0 0 0 0 0 0 0 0 0 0 0 0 0 0.25 0"/>
<feBlend mode="normal" in2="BackgroundImageFix" result="effect1_dropShadow_1_45"/>
<feBlend mode="normal" in="SourceGraphic" in2="effect1_dropShadow_1_45" result="shape"/>
</filter>
</defs>
</svg>
